<svg width="16" height="17" viewBox="0 0 16 17" fill="none" xmlns="http://www.w3.org/2000/svg">
<path fill-rule="evenodd" clip-rule="evenodd" d="M2.66341 8.18793C2.66341 5.6106 4.75275 3.52126 7.33008 3.52126C9.90741 3.52126 11.9967 5.6106 11.9967 8.18793C11.9967 9.4452 11.4995 10.5863 10.691 11.4255C10.6682 11.443 10.6462 11.4623 10.6253 11.4832C10.6044 11.5041 10.5852 11.5261 10.5676 11.5489C9.72847 12.3574 8.58734 12.8546 7.33008 12.8546C4.75275 12.8546 2.66341 10.7653 2.66341 8.18793ZM11.0752 12.8759C10.0487 13.697 8.74675 14.1879 7.33008 14.1879C4.01637 14.1879 1.33008 11.5016 1.33008 8.18793C1.33008 4.87422 4.01637 2.18793 7.33008 2.18793C10.6438 2.18793 13.3301 4.87422 13.3301 8.18793C13.3301 9.60461 12.8391 10.9066 12.018 11.9331L14.4681 14.3832C14.7285 14.6435 14.7285 15.0657 14.4681 15.326C14.2078 15.5864 13.7857 15.5864 13.5253 15.326L11.0752 12.8759Z" fill="#2D3440"/>
</svg>
