<svg width="16" height="17" viewBox="0 0 16 17" fill="none" xmlns="http://www.w3.org/2000/svg">
<path fill-rule="evenodd" clip-rule="evenodd" d="M9 2.52458C9 2.15639 9.29848 1.85791 9.66667 1.85791H12.3333C12.8638 1.85791 13.3725 2.06862 13.7475 2.4437C14.1226 2.81877 14.3333 3.32748 14.3333 3.85791V13.1912C14.3333 13.7217 14.1226 14.2304 13.7475 14.6055C13.3725 14.9805 12.8638 15.1912 12.3333 15.1912H9.66667C9.29848 15.1912 9 14.8928 9 14.5246C9 14.1564 9.29848 13.8579 9.66667 13.8579H12.3333C12.5101 13.8579 12.6797 13.7877 12.8047 13.6626C12.9298 13.5376 13 13.3681 13 13.1912V3.85791C13 3.6811 12.9298 3.51153 12.8047 3.38651C12.6797 3.26148 12.5101 3.19124 12.3333 3.19124H9.66667C9.29848 3.19124 9 2.89277 9 2.52458ZM5.86189 4.71984C6.12224 4.45949 6.54435 4.45949 6.8047 4.71984L10.1338 8.04894C10.1509 8.06576 10.1671 8.0835 10.1824 8.10207C10.2142 8.14087 10.2411 8.18243 10.2628 8.22586C10.3079 8.31572 10.3333 8.41718 10.3333 8.52458C10.3333 8.6332 10.3074 8.73576 10.2613 8.82637C10.241 8.86632 10.2164 8.90466 10.1876 8.94069C10.1708 8.96169 10.1527 8.98166 10.1335 9.00047L6.8047 12.3293C6.54435 12.5897 6.12224 12.5897 5.86189 12.3293C5.60154 12.069 5.60154 11.6469 5.86189 11.3865L8.05715 9.19124H1.66667C1.29848 9.19124 1 8.89277 1 8.52458C1 8.15639 1.29848 7.85791 1.66667 7.85791H8.05715L5.86189 5.66265C5.60154 5.4023 5.60154 4.98019 5.86189 4.71984Z" fill="#2D3440"/>
</svg>
